<svg width="565" height="91" viewBox="0 0 565 91" fill="none" xmlns="http://www.w3.org/2000/svg">
<g filter="url(#filter0_d_92_1046)">
<mask id="path-1-outside-1_92_1046" maskUnits="userSpaceOnUse" x="0" y="0" width="553" height="87" fill="black">
<rect fill="white" width="553" height="87"/>
<path d="M33.7 85.48C23.044 85.48 15.052 82.7173 9.724 77.192C4.49467 71.568 1.88 62.7867 1.88 50.848C1.88 48.8747 1.92933 46.7533 2.028 44.484C2.22533 42.116 2.42267 39.7973 2.62 37.528H33.7V47.888H15.052V50.848C15.052 57.064 15.7427 61.948 17.124 65.5C18.5053 68.9533 20.528 71.3707 23.192 72.752C25.9547 74.1333 29.3587 74.824 33.404 74.824C37.844 74.824 41.692 73.9853 44.948 72.308C48.204 70.6307 50.72 67.572 52.496 63.132C54.272 58.692 55.16 52.328 55.16 44.04C55.16 36.7387 54.3707 30.7693 52.792 26.132C51.2133 21.4947 48.5987 18.0413 44.948 15.772C41.396 13.5027 36.5613 12.368 30.444 12.368C27.2867 12.368 24.228 12.664 21.268 13.256C18.308 13.7493 15.4467 14.5387 12.684 15.624C9.92133 16.6107 7.208 17.8933 4.544 19.472V7.18799C6.51733 6.10266 8.93467 5.16533 11.796 4.37599C14.6573 3.48799 17.8147 2.79733 21.268 2.30399C24.7213 1.71199 28.3227 1.416 32.072 1.416C40.7547 1.416 47.76 3.192 53.088 6.744C58.5147 10.1973 62.4613 15.1307 64.928 21.544C67.3947 27.8587 68.628 35.3573 68.628 44.04C68.628 52.7227 67.4933 60.172 65.224 66.388C62.9547 72.604 59.2547 77.34 54.124 80.596C49.092 83.852 42.284 85.48 33.7 85.48ZM121.2 85.332C113.208 85.332 106.795 84.296 101.96 82.224C97.2244 80.152 93.771 77.2413 91.6004 73.492C89.5284 69.7427 88.4924 65.3027 88.4924 60.172C88.4924 55.6333 89.1337 52.032 90.4164 49.368C91.7977 46.6053 93.475 44.5827 95.4484 43.3C97.5204 42.0173 99.6417 41.1787 101.812 40.784V40.192C99.839 39.6 97.767 38.6133 95.5964 37.232C93.4257 35.8507 91.6004 33.9267 90.1204 31.46C88.739 28.9933 88.0484 25.8853 88.0484 22.136C88.0484 18.6827 88.8377 15.4267 90.4164 12.368C91.995 9.30933 94.5604 6.79333 98.1124 4.82C101.664 2.84666 106.351 1.86 112.172 1.86C114.54 1.86 117.007 2.05733 119.572 2.452C122.138 2.748 124.111 3.29066 125.492 4.08L123.124 14.292C122.039 13.8973 120.608 13.552 118.832 13.256C117.155 12.8613 115.379 12.664 113.504 12.664C109.36 12.664 106.302 13.6507 104.328 15.624C102.355 17.4987 101.368 20.0147 101.368 23.172C101.368 26.6253 102.207 29.24 103.884 31.016C105.66 32.792 107.88 34.0253 110.544 34.716C113.307 35.308 116.168 35.604 119.128 35.604H121.94V45.224H119.128C113.208 45.224 108.818 46.3093 105.956 48.48C103.194 50.552 101.812 54.0547 101.812 58.988C101.812 61.8493 102.355 64.464 103.44 66.832C104.624 69.2 106.598 71.0747 109.36 72.456C112.222 73.8373 116.168 74.528 121.2 74.528C126.232 74.528 130.13 73.8373 132.892 72.456C135.754 71.0747 137.776 69.1013 138.96 66.536C140.144 63.872 140.736 60.7147 140.736 57.064V2.89599H153.908V56.176C153.908 66.536 151.244 73.9853 145.916 78.524C140.687 83.0627 132.448 85.332 121.2 85.332ZM200.787 84V26.428C200.787 21.5933 199.653 18.0413 197.383 15.772C195.213 13.5027 191.513 12.368 186.283 12.368C182.731 12.368 179.377 12.8613 176.219 13.848C173.161 14.736 170.201 16.0187 167.339 17.696V5.856C169.313 4.86933 172.125 3.88266 175.775 2.89599C179.426 1.90933 183.767 1.416 188.799 1.416C193.93 1.416 198.37 2.156 202.119 3.63599C205.869 5.116 208.779 7.58267 210.851 11.036C212.923 14.3907 213.959 18.88 213.959 24.504V84H200.787ZM237.232 84V55.88C237.232 49.664 238.614 45.1747 241.376 42.412C244.139 39.5507 247.642 37.5773 251.884 36.492L252.032 36.048L235.752 29.832V24.948C235.752 20.9027 237.084 17.104 239.748 13.552C242.412 9.90133 246.211 6.99066 251.144 4.82C256.176 2.55066 262.146 1.416 269.052 1.416C275.071 1.416 280.646 2.40266 285.776 4.37599C290.907 6.25066 295.002 9.25999 298.06 13.404C301.218 17.4493 302.796 22.7773 302.796 29.388V84H289.624V30.72C289.624 24.1093 287.602 19.4227 283.556 16.66C279.61 13.7987 274.726 12.368 268.904 12.368C262.886 12.368 258.1 13.6507 254.548 16.216C250.996 18.6827 249.22 21.84 249.22 25.688L265.204 33.68L264.02 40.784C260.37 40.784 257.163 42.0173 254.4 44.484C251.736 46.852 250.404 50.6507 250.404 55.88V84H237.232ZM355.427 85.48C344.771 85.48 336.779 82.7173 331.451 77.192C326.221 71.568 323.607 62.7867 323.607 50.848C323.607 48.8747 323.656 46.7533 323.755 44.484C323.952 42.116 324.149 39.7973 324.347 37.528H355.427V47.888H336.779V50.848C336.779 57.064 337.469 61.948 338.851 65.5C340.232 68.9533 342.255 71.3707 344.919 72.752C347.681 74.1333 351.085 74.824 355.131 74.824C359.571 74.824 363.419 73.9853 366.675 72.308C369.931 70.6307 372.447 67.572 374.223 63.132C375.999 58.692 376.887 52.328 376.887 44.04C376.887 36.7387 376.097 30.7693 374.519 26.132C372.94 21.4947 370.325 18.0413 366.675 15.772C363.123 13.5027 358.288 12.368 352.171 12.368C349.013 12.368 345.955 12.664 342.995 13.256C340.035 13.7493 337.173 14.5387 334.411 15.624C331.648 16.6107 328.935 17.8933 326.271 19.472V7.18799C328.244 6.10266 330.661 5.16533 333.523 4.37599C336.384 3.48799 339.541 2.79733 342.995 2.30399C346.448 1.71199 350.049 1.416 353.799 1.416C362.481 1.416 369.487 3.192 374.815 6.744C380.241 10.1973 384.188 15.1307 386.655 21.544C389.121 27.8587 390.355 35.3573 390.355 44.04C390.355 52.7227 389.22 60.172 386.951 66.388C384.681 72.604 380.981 77.34 375.851 80.596C370.819 83.852 364.011 85.48 355.427 85.48ZM427.979 85.48C424.131 85.48 420.382 85.0853 416.731 84.296C413.179 83.5067 409.38 82.0267 405.335 79.856L409.479 69.792C411.65 71.0747 414.116 72.2093 416.879 73.196C419.642 74.084 422.848 74.528 426.499 74.528C433.8 74.528 439.474 71.864 443.519 66.536C447.663 61.1093 449.735 53.3147 449.735 43.152C449.735 33.1867 447.614 25.5893 443.371 20.36C439.227 15.032 432.814 12.368 424.131 12.368C420.974 12.368 417.767 12.7133 414.511 13.404C411.255 14.0947 408.394 15.1307 405.927 16.512V5.412C408.788 3.932 411.896 2.896 415.251 2.30399C418.704 1.71199 422.158 1.416 425.611 1.416C434.491 1.416 441.694 3.192 447.219 6.744C452.744 10.1973 456.79 15.032 459.355 21.248C461.92 27.464 463.203 34.7653 463.203 43.152C463.203 56.176 460.243 66.4867 454.323 74.084C448.502 81.6813 439.72 85.48 427.979 85.48ZM512.219 85.48C504.325 85.48 498.109 83.6547 493.571 80.004C489.131 76.2547 485.973 71.2227 484.099 64.908C482.323 58.5933 481.435 51.6373 481.435 44.04C481.435 35.6533 482.273 28.7467 483.951 23.32C485.727 17.7947 488.193 13.4533 491.351 10.296C494.607 7.04 498.455 4.77066 502.895 3.488C507.433 2.10666 512.416 1.416 517.843 1.416C525.736 1.416 532.149 2.6 537.083 4.96799C542.115 7.23733 545.815 10.4933 548.183 14.736C550.551 18.9787 551.735 24.06 551.735 29.98V84H538.711V31.164C538.711 25.0467 537.181 20.4093 534.123 17.252C531.064 13.996 525.785 12.368 518.287 12.368C513.748 12.368 509.653 13.2067 506.003 14.884C502.451 16.5613 499.639 19.6693 497.567 24.208C495.593 28.7467 494.607 35.4067 494.607 44.188C494.607 49.9107 495.149 55.0907 496.235 59.728C497.419 64.2667 499.441 67.868 502.303 70.532C505.164 73.196 509.16 74.528 514.291 74.528C515.771 74.528 517.152 74.4293 518.435 74.232C519.717 74.0347 520.951 73.7387 522.135 73.344L523.467 83.556C521.888 84.2467 520.063 84.74 517.991 85.036C516.017 85.332 514.093 85.48 512.219 85.48Z"/>
</mask>
<path d="M33.7 85.48C23.044 85.48 15.052 82.7173 9.724 77.192C4.49467 71.568 1.88 62.7867 1.88 50.848C1.88 48.8747 1.92933 46.7533 2.028 44.484C2.22533 42.116 2.42267 39.7973 2.62 37.528H33.7V47.888H15.052V50.848C15.052 57.064 15.7427 61.948 17.124 65.5C18.5053 68.9533 20.528 71.3707 23.192 72.752C25.9547 74.1333 29.3587 74.824 33.404 74.824C37.844 74.824 41.692 73.9853 44.948 72.308C48.204 70.6307 50.72 67.572 52.496 63.132C54.272 58.692 55.16 52.328 55.16 44.04C55.16 36.7387 54.3707 30.7693 52.792 26.132C51.2133 21.4947 48.5987 18.0413 44.948 15.772C41.396 13.5027 36.5613 12.368 30.444 12.368C27.2867 12.368 24.228 12.664 21.268 13.256C18.308 13.7493 15.4467 14.5387 12.684 15.624C9.92133 16.6107 7.208 17.8933 4.544 19.472V7.18799C6.51733 6.10266 8.93467 5.16533 11.796 4.37599C14.6573 3.48799 17.8147 2.79733 21.268 2.30399C24.7213 1.71199 28.3227 1.416 32.072 1.416C40.7547 1.416 47.76 3.192 53.088 6.744C58.5147 10.1973 62.4613 15.1307 64.928 21.544C67.3947 27.8587 68.628 35.3573 68.628 44.04C68.628 52.7227 67.4933 60.172 65.224 66.388C62.9547 72.604 59.2547 77.34 54.124 80.596C49.092 83.852 42.284 85.48 33.7 85.48ZM121.2 85.332C113.208 85.332 106.795 84.296 101.96 82.224C97.2244 80.152 93.771 77.2413 91.6004 73.492C89.5284 69.7427 88.4924 65.3027 88.4924 60.172C88.4924 55.6333 89.1337 52.032 90.4164 49.368C91.7977 46.6053 93.475 44.5827 95.4484 43.3C97.5204 42.0173 99.6417 41.1787 101.812 40.784V40.192C99.839 39.6 97.767 38.6133 95.5964 37.232C93.4257 35.8507 91.6004 33.9267 90.1204 31.46C88.739 28.9933 88.0484 25.8853 88.0484 22.136C88.0484 18.6827 88.8377 15.4267 90.4164 12.368C91.995 9.30933 94.5604 6.79333 98.1124 4.82C101.664 2.84666 106.351 1.86 112.172 1.86C114.54 1.86 117.007 2.05733 119.572 2.452C122.138 2.748 124.111 3.29066 125.492 4.08L123.124 14.292C122.039 13.8973 120.608 13.552 118.832 13.256C117.155 12.8613 115.379 12.664 113.504 12.664C109.36 12.664 106.302 13.6507 104.328 15.624C102.355 17.4987 101.368 20.0147 101.368 23.172C101.368 26.6253 102.207 29.24 103.884 31.016C105.66 32.792 107.88 34.0253 110.544 34.716C113.307 35.308 116.168 35.604 119.128 35.604H121.94V45.224H119.128C113.208 45.224 108.818 46.3093 105.956 48.48C103.194 50.552 101.812 54.0547 101.812 58.988C101.812 61.8493 102.355 64.464 103.44 66.832C104.624 69.2 106.598 71.0747 109.36 72.456C112.222 73.8373 116.168 74.528 121.2 74.528C126.232 74.528 130.13 73.8373 132.892 72.456C135.754 71.0747 137.776 69.1013 138.96 66.536C140.144 63.872 140.736 60.7147 140.736 57.064V2.89599H153.908V56.176C153.908 66.536 151.244 73.9853 145.916 78.524C140.687 83.0627 132.448 85.332 121.2 85.332ZM200.787 84V26.428C200.787 21.5933 199.653 18.0413 197.383 15.772C195.213 13.5027 191.513 12.368 186.283 12.368C182.731 12.368 179.377 12.8613 176.219 13.848C173.161 14.736 170.201 16.0187 167.339 17.696V5.856C169.313 4.86933 172.125 3.88266 175.775 2.89599C179.426 1.90933 183.767 1.416 188.799 1.416C193.93 1.416 198.37 2.156 202.119 3.63599C205.869 5.116 208.779 7.58267 210.851 11.036C212.923 14.3907 213.959 18.88 213.959 24.504V84H200.787ZM237.232 84V55.88C237.232 49.664 238.614 45.1747 241.376 42.412C244.139 39.5507 247.642 37.5773 251.884 36.492L252.032 36.048L235.752 29.832V24.948C235.752 20.9027 237.084 17.104 239.748 13.552C242.412 9.90133 246.211 6.99066 251.144 4.82C256.176 2.55066 262.146 1.416 269.052 1.416C275.071 1.416 280.646 2.40266 285.776 4.37599C290.907 6.25066 295.002 9.25999 298.06 13.404C301.218 17.4493 302.796 22.7773 302.796 29.388V84H289.624V30.72C289.624 24.1093 287.602 19.4227 283.556 16.66C279.61 13.7987 274.726 12.368 268.904 12.368C262.886 12.368 258.1 13.6507 254.548 16.216C250.996 18.6827 249.22 21.84 249.22 25.688L265.204 33.68L264.02 40.784C260.37 40.784 257.163 42.0173 254.4 44.484C251.736 46.852 250.404 50.6507 250.404 55.88V84H237.232ZM355.427 85.48C344.771 85.48 336.779 82.7173 331.451 77.192C326.221 71.568 323.607 62.7867 323.607 50.848C323.607 48.8747 323.656 46.7533 323.755 44.484C323.952 42.116 324.149 39.7973 324.347 37.528H355.427V47.888H336.779V50.848C336.779 57.064 337.469 61.948 338.851 65.5C340.232 68.9533 342.255 71.3707 344.919 72.752C347.681 74.1333 351.085 74.824 355.131 74.824C359.571 74.824 363.419 73.9853 366.675 72.308C369.931 70.6307 372.447 67.572 374.223 63.132C375.999 58.692 376.887 52.328 376.887 44.04C376.887 36.7387 376.097 30.7693 374.519 26.132C372.94 21.4947 370.325 18.0413 366.675 15.772C363.123 13.5027 358.288 12.368 352.171 12.368C349.013 12.368 345.955 12.664 342.995 13.256C340.035 13.7493 337.173 14.5387 334.411 15.624C331.648 16.6107 328.935 17.8933 326.271 19.472V7.18799C328.244 6.10266 330.661 5.16533 333.523 4.37599C336.384 3.48799 339.541 2.79733 342.995 2.30399C346.448 1.71199 350.049 1.416 353.799 1.416C362.481 1.416 369.487 3.192 374.815 6.744C380.241 10.1973 384.188 15.1307 386.655 21.544C389.121 27.8587 390.355 35.3573 390.355 44.04C390.355 52.7227 389.22 60.172 386.951 66.388C384.681 72.604 380.981 77.34 375.851 80.596C370.819 83.852 364.011 85.48 355.427 85.48ZM427.979 85.48C424.131 85.48 420.382 85.0853 416.731 84.296C413.179 83.5067 409.38 82.0267 405.335 79.856L409.479 69.792C411.65 71.0747 414.116 72.2093 416.879 73.196C419.642 74.084 422.848 74.528 426.499 74.528C433.8 74.528 439.474 71.864 443.519 66.536C447.663 61.1093 449.735 53.3147 449.735 43.152C449.735 33.1867 447.614 25.5893 443.371 20.36C439.227 15.032 432.814 12.368 424.131 12.368C420.974 12.368 417.767 12.7133 414.511 13.404C411.255 14.0947 408.394 15.1307 405.927 16.512V5.412C408.788 3.932 411.896 2.896 415.251 2.30399C418.704 1.71199 422.158 1.416 425.611 1.416C434.491 1.416 441.694 3.192 447.219 6.744C452.744 10.1973 456.79 15.032 459.355 21.248C461.92 27.464 463.203 34.7653 463.203 43.152C463.203 56.176 460.243 66.4867 454.323 74.084C448.502 81.6813 439.72 85.48 427.979 85.48ZM512.219 85.48C504.325 85.48 498.109 83.6547 493.571 80.004C489.131 76.2547 485.973 71.2227 484.099 64.908C482.323 58.5933 481.435 51.6373 481.435 44.04C481.435 35.6533 482.273 28.7467 483.951 23.32C485.727 17.7947 488.193 13.4533 491.351 10.296C494.607 7.04 498.455 4.77066 502.895 3.488C507.433 2.10666 512.416 1.416 517.843 1.416C525.736 1.416 532.149 2.6 537.083 4.96799C542.115 7.23733 545.815 10.4933 548.183 14.736C550.551 18.9787 551.735 24.06 551.735 29.98V84H538.711V31.164C538.711 25.0467 537.181 20.4093 534.123 17.252C531.064 13.996 525.785 12.368 518.287 12.368C513.748 12.368 509.653 13.2067 506.003 14.884C502.451 16.5613 499.639 19.6693 497.567 24.208C495.593 28.7467 494.607 35.4067 494.607 44.188C494.607 49.9107 495.149 55.0907 496.235 59.728C497.419 64.2667 499.441 67.868 502.303 70.532C505.164 73.196 509.16 74.528 514.291 74.528C515.771 74.528 517.152 74.4293 518.435 74.232C519.717 74.0347 520.951 73.7387 522.135 73.344L523.467 83.556C521.888 84.2467 520.063 84.74 517.991 85.036C516.017 85.332 514.093 85.48 512.219 85.48Z" fill="#182E57"/>
<path d="M9.724 77.192L8.99167 77.8729L8.99785 77.8796L9.00416 77.8861L9.724 77.192ZM2.028 44.484L1.03145 44.401L1.02981 44.4207L1.02894 44.4406L2.028 44.484ZM2.62 37.528V36.528H1.70318L1.62376 37.4414L2.62 37.528ZM33.7 37.528H34.7V36.528H33.7V37.528ZM33.7 47.888V48.888H34.7V47.888H33.7ZM15.052 47.888V46.888H14.052V47.888H15.052ZM17.124 65.5L16.192 65.8625L16.1955 65.8714L17.124 65.5ZM23.192 72.752L22.7317 73.6398L22.7382 73.6431L22.7448 73.6464L23.192 72.752ZM44.948 72.308L44.49 71.419L44.49 71.419L44.948 72.308ZM52.792 26.132L53.7387 25.8097L53.7387 25.8097L52.792 26.132ZM44.948 15.772L44.4096 16.6148L44.4201 16.6213L44.948 15.772ZM21.268 13.256L21.4324 14.2424L21.4483 14.2397L21.4641 14.2366L21.268 13.256ZM12.684 15.624L13.0203 16.5657L13.0351 16.5605L13.0497 16.5547L12.684 15.624ZM4.544 19.472H3.544V21.227L5.0538 20.3323L4.544 19.472ZM4.544 7.18799L4.06208 6.31178L3.544 6.59672V7.18799H4.544ZM11.796 4.37599L12.0619 5.33999L12.0772 5.33576L12.0924 5.33106L11.796 4.37599ZM21.268 2.30399L21.4094 3.29394L21.4232 3.29197L21.437 3.28962L21.268 2.30399ZM53.088 6.744L52.5333 7.57605L52.5422 7.58195L52.5511 7.58766L53.088 6.744ZM64.928 21.544L63.9946 21.903L63.9965 21.9078L64.928 21.544ZM65.224 66.388L66.1634 66.7309L66.1634 66.7309L65.224 66.388ZM54.124 80.596L53.5882 79.7516L53.5808 79.7564L54.124 80.596ZM33.7 85.48V84.48C23.2076 84.48 15.5197 81.7617 10.4438 76.4979L9.724 77.192L9.00416 77.8861C14.5843 83.673 22.8804 86.48 33.7 86.48V85.48ZM9.724 77.192L10.4563 76.5111C5.473 71.1516 2.88 62.669 2.88 50.848H1.88H0.88C0.88 62.9043 3.51633 71.9844 8.99167 77.8729L9.724 77.192ZM1.88 50.848H2.88C2.88 48.8911 2.92893 46.7844 3.02706 44.5274L2.028 44.484L1.02894 44.4406C0.92974 46.7223 0.88 48.8582 0.88 50.848H1.88ZM2.028 44.484L3.02455 44.567C3.22178 42.2002 3.41902 39.8827 3.61624 37.6146L2.62 37.528L1.62376 37.4414C1.42632 39.7119 1.22888 42.0318 1.03145 44.401L2.028 44.484ZM2.62 37.528V38.528H33.7V37.528V36.528H2.62V37.528ZM33.7 37.528H32.7V47.888H33.7H34.7V37.528H33.7ZM33.7 47.888V46.888H15.052V47.888V48.888H33.7V47.888ZM15.052 47.888H14.052V50.848H15.052H16.052V47.888H15.052ZM15.052 50.848H14.052C14.052 57.1197 14.7463 62.1449 16.192 65.8624L17.124 65.5L18.056 65.1376C16.7391 61.7511 16.052 57.0083 16.052 50.848H15.052ZM17.124 65.5L16.1955 65.8714C17.6438 69.4922 19.8073 72.1234 22.7317 73.6398L23.192 72.752L23.6523 71.8642C21.2487 70.6179 19.3668 68.4145 18.0525 65.1286L17.124 65.5ZM23.192 72.752L22.7448 73.6464C25.6825 75.1153 29.2497 75.824 33.404 75.824V74.824V73.824C29.4677 73.824 26.2269 73.1514 23.6392 71.8576L23.192 72.752ZM33.404 74.824V75.824C37.9699 75.824 41.9813 74.9612 45.406 73.197L44.948 72.308L44.49 71.419C41.4027 73.0095 37.7181 73.824 33.404 73.824V74.824ZM44.948 72.308L45.406 73.197C48.9344 71.3793 51.5869 68.0973 53.4245 63.5034L52.496 63.132L51.5675 62.7606C49.8531 67.0467 47.4736 69.882 44.49 71.419L44.948 72.308ZM52.496 63.132L53.4245 63.5034C55.2703 58.8889 56.16 52.3758 56.16 44.04H55.16H54.16C54.16 52.2802 53.2737 58.4951 51.5675 62.7606L52.496 63.132ZM55.16 44.04H56.16C56.16 36.6774 55.3654 30.5884 53.7387 25.8097L52.792 26.132L51.8454 26.4543C53.3759 30.9502 54.16 36.7999 54.16 44.04H55.16ZM52.792 26.132L53.7387 25.8097C52.0965 20.9859 49.35 17.3309 45.4759 14.9227L44.948 15.772L44.4201 16.6213C47.8473 18.7517 50.3302 22.0034 51.8454 26.4543L52.792 26.132ZM44.948 15.772L45.4864 14.9293C41.7165 12.5208 36.6707 11.368 30.444 11.368V12.368V13.368C36.452 13.368 41.0755 14.4846 44.4096 16.6147L44.948 15.772ZM30.444 12.368V11.368C27.2238 11.368 24.0993 11.6699 21.0719 12.2754L21.268 13.256L21.4641 14.2366C24.3567 13.6581 27.3495 13.368 30.444 13.368V12.368ZM21.268 13.256L21.1036 12.2696C18.0755 12.7743 15.1467 13.5821 12.3183 14.6932L12.684 15.624L13.0497 16.5547C15.7466 15.4952 18.5405 14.7244 21.4324 14.2424L21.268 13.256ZM12.684 15.624L12.3477 14.6823C9.52146 15.6916 6.75024 17.0022 4.0342 18.6117L4.544 19.472L5.0538 20.3323C7.66576 18.7845 10.3212 17.5297 13.0203 16.5657L12.684 15.624ZM4.544 19.472H5.544V7.18799H4.544H3.544V19.472H4.544ZM4.544 7.18799L5.02592 8.06421C6.91329 7.02616 9.25351 6.11472 12.0619 5.33999L11.796 4.37599L11.5301 3.412C8.61583 4.21593 6.12138 5.17916 4.06208 6.31178L4.544 7.18799ZM11.796 4.37599L12.0924 5.33106C14.8956 4.46108 18.0003 3.78096 21.4094 3.29394L21.268 2.30399L21.1266 1.31404C17.6291 1.81369 14.419 2.5149 11.4996 3.42093L11.796 4.37599ZM21.268 2.30399L21.437 3.28962C24.8307 2.70783 28.3754 2.416 32.072 2.416V1.416V0.415996C28.27 0.415996 24.6119 0.716164 21.099 1.31837L21.268 2.30399ZM32.072 1.416V2.416C40.6257 2.416 47.4185 4.1662 52.5333 7.57605L53.088 6.744L53.6427 5.91195C48.1015 2.21779 40.8836 0.415996 32.072 0.415996V1.416ZM53.088 6.744L52.5511 7.58766C57.7845 10.918 61.5993 15.675 63.9947 21.903L64.928 21.544L65.8614 21.185C63.3234 14.5863 59.2449 9.47668 53.6249 5.90034L53.088 6.744ZM64.928 21.544L63.9965 21.9078C66.4072 28.0791 67.628 35.4484 67.628 44.04H68.628H69.628C69.628 35.2662 68.3822 27.6383 65.8595 21.1801L64.928 21.544ZM68.628 44.04H67.628C67.628 52.6402 66.5035 59.9672 64.2846 66.0451L65.224 66.388L66.1634 66.7309C68.4831 60.3767 69.628 52.8052 69.628 44.04H68.628ZM65.224 66.388L64.2846 66.0451C62.0838 72.0736 58.5159 76.6245 53.5882 79.7517L54.124 80.596L54.6598 81.4403C59.9934 78.0555 63.8256 73.1344 66.1634 66.7309L65.224 66.388ZM54.124 80.596L53.5808 79.7564C48.7663 82.8716 42.1706 84.48 33.7 84.48V85.48V86.48C42.3974 86.48 49.4177 84.8324 54.6673 81.4356L54.124 80.596ZM101.96 82.224L101.56 83.1402L101.566 83.1431L101.96 82.224ZM91.6004 73.492L90.7251 73.9757L90.73 73.9844L90.7349 73.993L91.6004 73.492ZM90.4164 49.368L89.5219 48.9208L89.5186 48.9275L89.5154 48.9342L90.4164 49.368ZM95.4484 43.3L94.922 42.4497L94.9126 42.4555L94.9034 42.4616L95.4484 43.3ZM101.812 40.784L101.991 41.7679L102.812 41.6186V40.784H101.812ZM101.812 40.192H102.812V39.448L102.1 39.2342L101.812 40.192ZM95.5964 37.232L95.0595 38.0757L95.5964 37.232ZM90.1204 31.46L89.2479 31.9486L89.2552 31.9617L89.2629 31.9745L90.1204 31.46ZM90.4164 12.368L91.305 12.8266L91.305 12.8266L90.4164 12.368ZM98.1124 4.82L98.598 5.69415L98.598 5.69415L98.1124 4.82ZM119.572 2.452L119.42 3.44037L119.439 3.44324L119.458 3.44541L119.572 2.452ZM125.492 4.08L126.467 4.30589L126.635 3.58096L125.989 3.21175L125.492 4.08ZM123.124 14.292L122.783 15.2318L123.844 15.6176L124.099 14.5179L123.124 14.292ZM118.832 13.256L118.603 14.2294L118.635 14.237L118.668 14.2424L118.832 13.256ZM104.328 15.624L105.017 16.349L105.026 16.3402L105.035 16.3311L104.328 15.624ZM103.884 31.016L103.157 31.7026L103.167 31.713L103.177 31.7231L103.884 31.016ZM110.544 34.716L110.293 35.684L110.314 35.6893L110.335 35.6938L110.544 34.716ZM121.94 35.604H122.94V34.604H121.94V35.604ZM121.94 45.224V46.224H122.94V45.224H121.94ZM105.956 48.48L106.556 49.28L106.561 49.2767L105.956 48.48ZM103.44 66.832L102.531 67.2487L102.538 67.2641L102.546 67.2792L103.44 66.832ZM109.36 72.456L108.913 73.3505L108.926 73.3566L109.36 72.456ZM132.892 72.456L132.458 71.5554L132.445 71.5616L132.892 72.456ZM138.96 66.536L139.868 66.9551L139.871 66.9486L139.874 66.9421L138.96 66.536ZM140.736 2.89599V1.89599H139.736V2.89599H140.736ZM153.908 2.89599H154.908V1.89599H153.908V2.89599ZM145.916 78.524L145.268 77.7627L145.261 77.7688L145.916 78.524ZM121.2 85.332V84.332C113.28 84.332 107.017 83.3032 102.354 81.3049L101.96 82.224L101.566 83.1431C106.573 85.2888 113.136 86.332 121.2 86.332V85.332ZM101.96 82.224L102.361 81.3078C97.7816 79.3043 94.5104 76.5225 92.4658 72.991L91.6004 73.492L90.7349 73.993C93.0317 77.9602 96.6672 80.9997 101.56 83.1402L101.96 82.224ZM91.6004 73.492L92.4756 73.0083C90.5002 69.4338 89.4924 65.1669 89.4924 60.172H88.4924H87.4924C87.4924 65.4385 88.5565 70.0516 90.7251 73.9757L91.6004 73.492ZM88.4924 60.172H89.4924C89.4924 55.7108 90.1254 52.2775 91.3174 49.8018L90.4164 49.368L89.5154 48.9342C88.142 51.7865 87.4924 55.5559 87.4924 60.172H88.4924ZM90.4164 49.368L91.3108 49.8152C92.6367 47.1633 94.2089 45.2984 95.9934 44.1384L95.4484 43.3L94.9034 42.4616C92.7412 43.867 90.9587 46.0473 89.5219 48.9208L90.4164 49.368ZM95.4484 43.3L95.9747 44.1503C97.9514 42.9266 99.956 42.1379 101.991 41.7679L101.812 40.784L101.633 39.8001C99.3274 40.2194 97.0893 41.1081 94.922 42.4497L95.4484 43.3ZM101.812 40.784H102.812V40.192H101.812H100.812V40.784H101.812ZM101.812 40.192L102.1 39.2342C100.233 38.6742 98.2447 37.732 96.1333 36.3883L95.5964 37.232L95.0595 38.0757C97.2893 39.4946 99.445 40.5258 101.525 41.1498L101.812 40.192ZM95.5964 37.232L96.1333 36.3883C94.1083 35.0998 92.3875 33.2949 90.9779 30.9455L90.1204 31.46L89.2629 31.9745C90.8132 34.5584 92.7431 36.6016 95.0595 38.0757L95.5964 37.232ZM90.1204 31.46L90.9929 30.9714C89.718 28.6949 89.0484 25.7682 89.0484 22.136H88.0484H87.0484C87.0484 26.0025 87.76 29.2918 89.2479 31.9486L90.1204 31.46ZM88.0484 22.136H89.0484C89.0484 18.8417 89.7998 15.743 91.305 12.8266L90.4164 12.368L89.5278 11.9094C87.8756 15.1103 87.0484 18.5236 87.0484 22.136H88.0484ZM90.4164 12.368L91.305 12.8266C92.7779 9.97286 95.1866 7.58936 98.598 5.69415L98.1124 4.82L97.6267 3.94584C93.9341 5.99729 91.2122 8.64579 89.5278 11.9094L90.4164 12.368ZM98.1124 4.82L98.598 5.69415C101.951 3.83141 106.452 2.86 112.172 2.86V1.86V0.859999C106.25 0.859999 101.378 1.86192 97.6267 3.94584L98.1124 4.82ZM112.172 1.86V2.86C114.485 2.86 116.901 3.05272 119.42 3.44037L119.572 2.452L119.724 1.46363C117.114 1.06195 114.596 0.859999 112.172 0.859999V1.86ZM119.572 2.452L119.458 3.44541C121.962 3.73439 123.783 4.25493 124.996 4.94824L125.492 4.08L125.989 3.21175C124.439 2.32639 122.313 1.7616 119.687 1.45859L119.572 2.452ZM125.492 4.08L124.518 3.85411L122.15 14.0661L123.124 14.292L124.099 14.5179L126.467 4.30589L125.492 4.08ZM123.124 14.292L123.466 13.3522C122.301 12.9284 120.804 12.5708 118.997 12.2696L118.832 13.256L118.668 14.2424C120.413 14.5332 121.777 14.8663 122.783 15.2318L123.124 14.292ZM118.832 13.256L119.061 12.2826C117.303 11.8688 115.449 11.664 113.504 11.664V12.664V13.664C115.309 13.664 117.007 13.8539 118.603 14.2294L118.832 13.256ZM113.504 12.664V11.664C109.223 11.664 105.856 12.6818 103.621 14.9169L104.328 15.624L105.035 16.3311C106.747 14.6195 109.498 13.664 113.504 13.664V12.664ZM104.328 15.624L103.64 14.899C101.435 16.993 100.368 19.7884 100.368 23.172H101.368H102.368C102.368 20.2409 103.275 18.0043 105.017 16.349L104.328 15.624ZM101.368 23.172H100.368C100.368 26.7748 101.243 29.6761 103.157 31.7026L103.884 31.016L104.611 30.3294C103.171 28.8038 102.368 26.4759 102.368 23.172H101.368ZM103.884 31.016L103.177 31.7231C105.091 33.6371 107.474 34.953 110.293 35.684L110.544 34.716L110.795 33.748C108.287 33.0977 106.23 31.9469 104.591 30.3089L103.884 31.016ZM110.544 34.716L110.335 35.6938C113.17 36.3012 116.101 36.604 119.128 36.604V35.604V34.604C116.235 34.604 113.445 34.3148 110.754 33.7382L110.544 34.716ZM119.128 35.604V36.604H121.94V35.604V34.604H119.128V35.604ZM121.94 35.604H120.94V45.224H121.94H122.94V35.604H121.94ZM121.94 45.224V44.224H119.128V45.224V46.224H121.94V45.224ZM119.128 45.224V44.224C113.12 44.224 108.468 45.3195 105.352 47.6833L105.956 48.48L106.561 49.2767C109.167 47.2992 113.297 46.224 119.128 46.224V45.224ZM105.956 48.48L105.356 47.68C102.246 50.0125 100.812 53.8825 100.812 58.988H101.812H102.812C102.812 54.2269 104.141 51.0915 106.556 49.28L105.956 48.48ZM101.812 58.988H100.812C100.812 61.9788 101.38 64.7375 102.531 67.2487L103.44 66.832L104.349 66.4153C103.33 64.1905 102.812 61.7198 102.812 58.988H101.812ZM103.44 66.832L102.546 67.2792C103.842 69.8717 105.99 71.8891 108.913 73.3504L109.36 72.456L109.808 71.5616C107.205 70.2603 105.407 68.5283 104.335 66.3848L103.44 66.832ZM109.36 72.456L108.926 73.3566C111.979 74.8306 116.096 75.528 121.2 75.528V74.528V73.528C116.24 73.528 112.464 72.8441 109.795 71.5554L109.36 72.456ZM121.2 74.528V75.528C126.301 75.528 130.377 74.8316 133.34 73.3504L132.892 72.456L132.445 71.5616C129.882 72.8431 126.164 73.528 121.2 73.528V74.528ZM132.892 72.456L133.327 73.3566C136.37 71.8877 138.575 69.7571 139.868 66.9551L138.96 66.536L138.052 66.1169C136.978 68.4455 135.138 70.2616 132.458 71.5554L132.892 72.456ZM138.96 66.536L139.874 66.9421C141.127 64.1223 141.736 60.8204 141.736 57.064H140.736H139.736C139.736 60.6089 139.161 63.6217 138.047 66.1299L138.96 66.536ZM140.736 57.064H141.736V2.89599H140.736H139.736V57.064H140.736ZM140.736 2.89599V3.89599H153.908V2.89599V1.89599H140.736V2.89599ZM153.908 2.89599H152.908V56.176H153.908H154.908V2.89599H153.908ZM153.908 56.176H152.908C152.908 66.3864 150.283 73.4907 145.268 77.7628L145.916 78.524L146.565 79.2852C152.206 74.48 154.908 66.6856 154.908 56.176H153.908ZM145.916 78.524L145.261 77.7688C140.297 82.0768 132.348 84.332 121.2 84.332V85.332V86.332C132.548 86.332 141.077 84.0485 146.572 79.2792L145.916 78.524ZM200.787 84H199.787V85H200.787V84ZM197.383 15.772L196.661 16.4632L196.668 16.4712L196.676 16.4791L197.383 15.772ZM176.219 13.848L176.498 14.8083L176.508 14.8055L176.518 14.8025L176.219 13.848ZM167.339 17.696H166.339V19.4414L167.845 18.5587L167.339 17.696ZM167.339 5.856L166.892 4.96157L166.339 5.23797V5.856H167.339ZM202.119 3.63599L202.487 2.70584L202.487 2.70584L202.119 3.63599ZM210.851 11.036L209.994 11.5505L210.001 11.5615L210.851 11.036ZM213.959 84V85H214.959V84H213.959ZM200.787 84H201.787V26.428H200.787H199.787V84H200.787ZM200.787 26.428H201.787C201.787 21.4606 200.624 17.5983 198.09 15.0649L197.383 15.772L196.676 16.4791C198.682 18.4844 199.787 21.726 199.787 26.428H200.787ZM197.383 15.772L198.106 15.0808C195.654 12.5169 191.613 11.368 186.283 11.368V12.368V13.368C191.413 13.368 194.772 14.4884 196.661 16.4632L197.383 15.772ZM186.283 12.368V11.368C182.638 11.368 179.182 11.8745 175.921 12.8935L176.219 13.848L176.518 14.8025C179.572 13.8481 182.825 13.368 186.283 13.368V12.368ZM176.219 13.848L175.941 12.8876C172.799 13.7996 169.763 15.1159 166.834 16.8333L167.339 17.696L167.845 18.5587C170.638 16.9214 173.522 15.6724 176.498 14.8083L176.219 13.848ZM167.339 17.696H168.339V5.856H167.339H166.339V17.696H167.339ZM167.339 5.856L167.787 6.75043C169.673 5.80726 172.411 4.84107 176.036 3.86136L175.775 2.89599L175.514 1.93063C171.838 2.92425 168.953 3.9314 166.892 4.96157L167.339 5.856ZM175.775 2.89599L176.036 3.86136C179.579 2.90382 183.828 2.416 188.799 2.416V1.416V0.415996C183.706 0.415996 179.273 0.914836 175.514 1.93063L175.775 2.89599ZM188.799 1.416V2.416C193.837 2.416 198.147 3.14299 201.752 4.56615L202.119 3.63599L202.487 2.70584C198.593 1.169 194.023 0.415996 188.799 0.415996V1.416ZM202.119 3.63599L201.752 4.56615C205.297 5.96542 208.035 8.28608 209.994 11.5505L210.851 11.036L211.709 10.5215C209.524 6.87925 206.44 4.26658 202.487 2.70584L202.119 3.63599ZM210.851 11.036L210.001 11.5615C211.942 14.7046 212.959 18.9905 212.959 24.504H213.959H214.959C214.959 18.7695 213.905 14.0767 211.702 10.5105L210.851 11.036ZM213.959 24.504H212.959V84H213.959H214.959V24.504H213.959ZM213.959 84V83H200.787V84V85H213.959V84ZM237.232 84H236.232V85H237.232V84ZM241.376 42.412L242.083 43.1191L242.09 43.1129L242.096 43.1066L241.376 42.412ZM251.884 36.492L252.132 37.4608L252.661 37.3256L252.833 36.8082L251.884 36.492ZM252.032 36.048L252.981 36.3642L253.284 35.4555L252.389 35.1138L252.032 36.048ZM235.752 29.832H234.752V30.5206L235.396 30.7662L235.752 29.832ZM239.748 13.552L240.548 14.1521L240.556 14.1415L239.748 13.552ZM251.144 4.82L251.547 5.73535L251.555 5.73158L251.144 4.82ZM285.776 4.37599L285.417 5.30934L285.425 5.31236L285.433 5.31526L285.776 4.37599ZM298.06 13.404L297.256 13.9978L297.264 14.0087L297.272 14.0193L298.06 13.404ZM302.796 84V85H303.796V84H302.796ZM289.624 84H288.624V85H289.624V84ZM283.556 16.66L282.969 17.4696L282.981 17.4779L282.992 17.4858L283.556 16.66ZM254.548 16.216L255.119 17.0374L255.126 17.0321L255.134 17.0267L254.548 16.216ZM249.22 25.688H248.22V26.306L248.773 26.5824L249.22 25.688ZM265.204 33.68L266.191 33.8444L266.312 33.1159L265.652 32.7856L265.204 33.68ZM264.02 40.784V41.784H264.868L265.007 40.9484L264.02 40.784ZM254.4 44.484L255.065 45.2314L255.066 45.2299L254.4 44.484ZM250.404 84V85H251.404V84H250.404ZM237.232 84H238.232V55.88H237.232H236.232V84H237.232ZM237.232 55.88H238.232C238.232 49.778 239.593 45.6092 242.083 43.1191L241.376 42.412L240.669 41.7049C237.634 44.7402 236.232 49.55 236.232 55.88H237.232ZM241.376 42.412L242.096 43.1066C244.717 40.3919 248.05 38.505 252.132 37.4608L251.884 36.492L251.637 35.5232C247.233 36.6497 243.561 38.7095 240.657 41.7174L241.376 42.412ZM251.884 36.492L252.833 36.8082L252.981 36.3642L252.032 36.048L251.084 35.7318L250.936 36.1758L251.884 36.492ZM252.032 36.048L252.389 35.1138L236.109 28.8978L235.752 29.832L235.396 30.7662L251.676 36.9822L252.032 36.048ZM235.752 29.832H236.752V24.948H235.752H234.752V29.832H235.752ZM235.752 24.948H236.752C236.752 21.1403 238.001 17.5487 240.548 14.152L239.748 13.552L238.948 12.952C236.168 16.6593 234.752 20.665 234.752 24.948H235.752ZM239.748 13.552L240.556 14.1415C243.098 10.6584 246.744 7.84869 251.547 5.73531L251.144 4.82L250.742 3.90468C245.678 6.13263 241.727 9.14423 238.941 12.9625L239.748 13.552ZM251.144 4.82L251.555 5.73158C256.43 3.53323 262.253 2.416 269.052 2.416V1.416V0.415996C262.039 0.415996 255.923 1.5681 250.733 3.90841L251.144 4.82ZM269.052 1.416V2.416C274.96 2.416 280.412 3.38407 285.417 5.30934L285.776 4.37599L286.135 3.44265C280.88 1.42125 275.182 0.415996 269.052 0.415996V1.416ZM285.776 4.37599L285.433 5.31526C290.391 7.12685 294.321 10.0215 297.256 13.9978L298.06 13.404L298.865 12.8101C295.683 8.49846 291.423 5.37447 286.12 3.43673L285.776 4.37599ZM298.06 13.404L297.272 14.0193C300.257 17.8437 301.796 22.9354 301.796 29.388H302.796H303.796C303.796 22.6193 302.178 17.0549 298.849 12.7887L298.06 13.404ZM302.796 29.388H301.796V84H302.796H303.796V29.388H302.796ZM302.796 84V83H289.624V84V85H302.796V84ZM289.624 84H290.624V30.72H289.624H288.624V84H289.624ZM289.624 30.72H290.624C290.624 23.9058 288.529 18.8448 284.12 15.8342L283.556 16.66L282.992 17.4858C286.675 20.0005 288.624 24.3129 288.624 30.72H289.624ZM283.556 16.66L284.143 15.8504C279.995 12.8427 274.895 11.368 268.904 11.368V12.368V13.368C274.557 13.368 279.225 14.7546 282.969 17.4696L283.556 16.66ZM268.904 12.368V11.368C262.752 11.368 257.739 12.6785 253.963 15.4053L254.548 16.216L255.134 17.0267C258.462 14.6228 263.019 13.368 268.904 13.368V12.368ZM254.548 16.216L253.978 15.3946C250.196 18.0213 248.22 21.4678 248.22 25.688H249.22H250.22C250.22 22.2122 251.797 19.3441 255.119 17.0374L254.548 16.216ZM249.22 25.688L248.773 26.5824L264.757 34.5744L265.204 33.68L265.652 32.7856L249.668 24.7936L249.22 25.688ZM265.204 33.68L264.218 33.5156L263.034 40.6196L264.02 40.784L265.007 40.9484L266.191 33.8444L265.204 33.68ZM264.02 40.784V39.784C260.12 39.784 256.677 41.1104 253.734 43.7381L254.4 44.484L255.066 45.2299C257.649 42.9243 260.619 41.784 264.02 41.784V40.784ZM254.4 44.484L253.736 43.7366C250.775 46.3688 249.404 50.5006 249.404 55.88H250.404H251.404C251.404 50.8008 252.698 47.3351 255.065 45.2314L254.4 44.484ZM250.404 55.88H249.404V84H250.404H251.404V55.88H250.404ZM250.404 84V83H237.232V84V85H250.404V84ZM331.451 77.192L330.718 77.8729L330.724 77.8796L330.731 77.8861L331.451 77.192ZM323.755 44.484L322.758 44.401L322.756 44.4207L322.756 44.4406L323.755 44.484ZM324.347 37.528V36.528H323.43L323.35 37.4414L324.347 37.528ZM355.427 37.528H356.427V36.528H355.427V37.528ZM355.427 47.888V48.888H356.427V47.888H355.427ZM336.779 47.888V46.888H335.779V47.888H336.779ZM338.851 65.5L337.919 65.8625L337.922 65.8714L338.851 65.5ZM344.919 72.752L344.458 73.6398L344.465 73.6431L344.471 73.6464L344.919 72.752ZM366.675 72.308L366.217 71.419L366.217 71.419L366.675 72.308ZM374.519 26.132L375.465 25.8097L375.465 25.8097L374.519 26.132ZM366.675 15.772L366.136 16.6148L366.147 16.6213L366.675 15.772ZM342.995 13.256L343.159 14.2424L343.175 14.2397L343.191 14.2366L342.995 13.256ZM334.411 15.624L334.747 16.5657L334.762 16.5605L334.776 16.5547L334.411 15.624ZM326.271 19.472H325.271V21.227L326.78 20.3323L326.271 19.472ZM326.271 7.18799L325.789 6.31178L325.271 6.59672V7.18799H326.271ZM333.523 4.37599L333.788 5.33999L333.804 5.33576L333.819 5.33106L333.523 4.37599ZM342.995 2.30399L343.136 3.29394L343.15 3.29197L343.164 3.28962L342.995 2.30399ZM374.815 6.744L374.26 7.57605L374.269 7.58195L374.278 7.58766L374.815 6.744ZM386.655 21.544L385.721 21.903L385.723 21.9078L386.655 21.544ZM386.951 66.388L387.89 66.7309L387.89 66.7309L386.951 66.388ZM375.851 80.596L375.315 79.7516L375.307 79.7564L375.851 80.596ZM355.427 85.48V84.48C344.934 84.48 337.246 81.7617 332.17 76.4979L331.451 77.192L330.731 77.8861C336.311 83.673 344.607 86.48 355.427 86.48V85.48ZM331.451 77.192L332.183 76.5111C327.2 71.1516 324.607 62.669 324.607 50.848H323.607H322.607C322.607 62.9043 325.243 71.9844 330.718 77.8729L331.451 77.192ZM323.607 50.848H324.607C324.607 48.8911 324.655 46.7844 324.754 44.5274L323.755 44.484L322.756 44.4406C322.656 46.7223 322.607 48.8582 322.607 50.848H323.607ZM323.755 44.484L324.751 44.567C324.948 42.2002 325.146 39.8827 325.343 37.6146L324.347 37.528L323.35 37.4414C323.153 39.7119 322.955 42.0318 322.758 44.401L323.755 44.484ZM324.347 37.528V38.528H355.427V37.528V36.528H324.347V37.528ZM355.427 37.528H354.427V47.888H355.427H356.427V37.528H355.427ZM355.427 47.888V46.888H336.779V47.888V48.888H355.427V47.888ZM336.779 47.888H335.779V50.848H336.779H337.779V47.888H336.779ZM336.779 50.848H335.779C335.779 57.1197 336.473 62.1449 337.919 65.8624L338.851 65.5L339.783 65.1376C338.466 61.7511 337.779 57.0083 337.779 50.848H336.779ZM338.851 65.5L337.922 65.8714C339.37 69.4922 341.534 72.1234 344.458 73.6398L344.919 72.752L345.379 71.8642C342.975 70.6179 341.093 68.4145 339.779 65.1286L338.851 65.5ZM344.919 72.752L344.471 73.6464C347.409 75.1153 350.976 75.824 355.131 75.824V74.824V73.824C351.194 73.824 347.953 73.1514 345.366 71.8576L344.919 72.752ZM355.131 74.824V75.824C359.696 75.824 363.708 74.9612 367.133 73.197L366.675 72.308L366.217 71.419C363.129 73.0095 359.445 73.824 355.131 73.824V74.824ZM366.675 72.308L367.133 73.197C370.661 71.3793 373.313 68.0973 375.151 63.5034L374.223 63.132L373.294 62.7606C371.58 67.0467 369.2 69.882 366.217 71.419L366.675 72.308ZM374.223 63.132L375.151 63.5034C376.997 58.8889 377.887 52.3758 377.887 44.04H376.887H375.887C375.887 52.2802 375 58.4951 373.294 62.7606L374.223 63.132ZM376.887 44.04H377.887C377.887 36.6774 377.092 30.5884 375.465 25.8097L374.519 26.132L373.572 26.4543C375.102 30.9502 375.887 36.7999 375.887 44.04H376.887ZM374.519 26.132L375.465 25.8097C373.823 20.9859 371.077 17.3309 367.202 14.9227L366.675 15.772L366.147 16.6213C369.574 18.7517 372.057 22.0034 373.572 26.4543L374.519 26.132ZM366.675 15.772L367.213 14.9293C363.443 12.5208 358.397 11.368 352.171 11.368V12.368V13.368C358.179 13.368 362.802 14.4846 366.136 16.6147L366.675 15.772ZM352.171 12.368V11.368C348.95 11.368 345.826 11.6699 342.798 12.2754L342.995 13.256L343.191 14.2366C346.083 13.6581 349.076 13.368 352.171 13.368V12.368ZM342.995 13.256L342.83 12.2696C339.802 12.7743 336.873 13.5821 334.045 14.6932L334.411 15.624L334.776 16.5547C337.473 15.4952 340.267 14.7244 343.159 14.2424L342.995 13.256ZM334.411 15.624L334.074 14.6823C331.248 15.6916 328.477 17.0022 325.761 18.6117L326.271 19.472L326.78 20.3323C329.392 18.7845 332.048 17.5297 334.747 16.5657L334.411 15.624ZM326.271 19.472H327.271V7.18799H326.271H325.271V19.472H326.271ZM326.271 7.18799L326.752 8.06421C328.64 7.02616 330.98 6.11472 333.788 5.33999L333.523 4.37599L333.257 3.412C330.342 4.21593 327.848 5.17916 325.789 6.31178L326.271 7.18799ZM333.523 4.37599L333.819 5.33106C336.622 4.46108 339.727 3.78096 343.136 3.29394L342.995 2.30399L342.853 1.31404C339.356 1.81369 336.146 2.5149 333.226 3.42093L333.523 4.37599ZM342.995 2.30399L343.164 3.28962C346.557 2.70783 350.102 2.416 353.799 2.416V1.416V0.415996C349.997 0.415996 346.338 0.716164 342.826 1.31837L342.995 2.30399ZM353.799 1.416V2.416C362.352 2.416 369.145 4.1662 374.26 7.57605L374.815 6.744L375.369 5.91195C369.828 2.21779 362.61 0.415996 353.799 0.415996V1.416ZM374.815 6.744L374.278 7.58766C379.511 10.918 383.326 15.675 385.721 21.903L386.655 21.544L387.588 21.185C385.05 14.5863 380.971 9.47668 375.351 5.90034L374.815 6.744ZM386.655 21.544L385.723 21.9078C388.134 28.0791 389.355 35.4484 389.355 44.04H390.355H391.355C391.355 35.2662 390.109 27.6383 387.586 21.1801L386.655 21.544ZM390.355 44.04H389.355C389.355 52.6402 388.23 59.9672 386.011 66.0451L386.951 66.388L387.89 66.7309C390.21 60.3767 391.355 52.8052 391.355 44.04H390.355ZM386.951 66.388L386.011 66.0451C383.81 72.0736 380.242 76.6245 375.315 79.7517L375.851 80.596L376.386 81.4403C381.72 78.0555 385.552 73.1344 387.89 66.7309L386.951 66.388ZM375.851 80.596L375.307 79.7564C370.493 82.8716 363.897 84.48 355.427 84.48V85.48V86.48C364.124 86.48 371.144 84.8324 376.394 81.4356L375.851 80.596ZM416.731 84.296L416.514 85.2722L416.52 85.2734L416.731 84.296ZM405.335 79.856L404.41 79.4753L404.066 80.3102L404.862 80.7372L405.335 79.856ZM409.479 69.792L409.988 68.9311L408.994 68.3438L408.554 69.4113L409.479 69.792ZM416.879 73.196L416.543 74.1377L416.558 74.1431L416.573 74.148L416.879 73.196ZM443.519 66.536L442.724 65.9291L442.722 65.9313L443.519 66.536ZM443.371 20.36L442.582 20.9739L442.588 20.9821L442.594 20.99L443.371 20.36ZM405.927 16.512H404.927V18.2181L406.416 17.3845L405.927 16.512ZM405.927 5.412L405.468 4.52378L404.927 4.80339V5.412H405.927ZM415.251 2.30399L415.082 1.31836L415.077 1.31921L415.251 2.30399ZM447.219 6.744L446.678 7.58524L446.689 7.592L447.219 6.744ZM459.355 21.248L460.279 20.8665L460.279 20.8665L459.355 21.248ZM454.323 74.084L453.534 73.4693L453.529 73.4758L454.323 74.084ZM427.979 85.48V84.48C424.2 84.48 420.521 84.0925 416.942 83.3186L416.731 84.296L416.52 85.2734C420.242 86.0782 424.062 86.48 427.979 86.48V85.48ZM416.731 84.296L416.948 83.3198C413.505 82.5547 409.793 81.113 405.808 78.9748L405.335 79.856L404.862 80.7372C408.968 82.9403 412.853 84.4586 416.514 85.2722L416.731 84.296ZM405.335 79.856L406.26 80.2367L410.404 70.1727L409.479 69.792L408.554 69.4113L404.41 79.4753L405.335 79.856ZM409.479 69.792L408.97 70.6529C411.204 71.9727 413.729 73.1331 416.543 74.1377L416.879 73.196L417.215 72.2543C414.503 71.2856 412.096 70.1766 409.988 68.9311L409.479 69.792ZM416.879 73.196L416.573 74.148C419.456 75.0748 422.77 75.528 426.499 75.528V74.528V73.528C422.927 73.528 419.827 73.0932 417.185 72.244L416.879 73.196ZM426.499 74.528V75.528C434.08 75.528 440.062 72.7429 444.315 67.1407L443.519 66.536L442.722 65.9313C438.885 70.9851 433.521 73.528 426.499 73.528V74.528ZM443.519 66.536L444.314 67.1429C448.642 61.4751 450.735 53.4317 450.735 43.152H449.735H448.735C448.735 53.1977 446.684 60.7436 442.724 65.9291L443.519 66.536ZM449.735 43.152H450.735C450.735 33.0635 448.59 25.2054 444.148 19.73L443.371 20.36L442.594 20.99C446.637 25.9733 448.735 33.3099 448.735 43.152H449.735ZM443.371 20.36L444.16 19.7461C439.775 14.1073 433.026 11.368 424.131 11.368V12.368V13.368C432.601 13.368 438.679 15.9567 442.582 20.9739L443.371 20.36ZM424.131 12.368V11.368C420.9 11.368 417.624 11.7214 414.303 12.4258L414.511 13.404L414.718 14.3822C417.91 13.7053 421.047 13.368 424.131 13.368V12.368ZM414.511 13.404L414.303 12.4258C410.966 13.1337 408.007 14.2011 405.438 15.6395L405.927 16.512L406.416 17.3845C408.78 16.0602 411.544 15.0556 414.718 14.3822L414.511 13.404ZM405.927 16.512H406.927V5.412H405.927H404.927V16.512H405.927ZM405.927 5.412L406.386 6.30022C409.153 4.86926 412.164 3.86423 415.425 3.28878L415.251 2.30399L415.077 1.31921C411.629 1.92777 408.424 2.99474 405.468 4.52378L405.927 5.412ZM415.251 2.30399L415.42 3.28962C418.818 2.70705 422.215 2.416 425.611 2.416V1.416V0.415996C422.1 0.415996 418.59 0.716945 415.082 1.31837L415.251 2.30399ZM425.611 1.416V2.416C434.365 2.416 441.362 4.16739 446.678 7.58518L447.219 6.744L447.76 5.90282C442.026 2.2166 434.617 0.415996 425.611 0.415996V1.416ZM447.219 6.744L446.689 7.592C452.031 10.931 455.942 15.5997 458.431 21.6295L459.355 21.248L460.279 20.8665C457.637 14.4643 453.457 9.46362 447.749 5.896L447.219 6.744ZM459.355 21.248L458.431 21.6295C460.935 27.6986 462.203 34.865 462.203 43.152H463.203H464.203C464.203 34.6657 462.905 27.2294 460.279 20.8665L459.355 21.248ZM463.203 43.152H462.203C462.203 56.0312 459.276 66.1005 453.534 73.4694L454.323 74.084L455.112 74.6986C461.21 66.8728 464.203 56.3208 464.203 43.152H463.203ZM454.323 74.084L453.529 73.4758C447.94 80.7699 439.488 84.48 427.979 84.48V85.48V86.48C439.953 86.48 449.063 82.5927 455.117 74.6922L454.323 74.084ZM493.571 80.004L492.926 80.768L492.935 80.7757L492.944 80.7832L493.571 80.004ZM484.099 64.908L483.136 65.1787L483.138 65.1857L483.14 65.1926L484.099 64.908ZM483.951 23.32L482.999 23.014L482.995 23.0247L483.951 23.32ZM491.351 10.296L490.644 9.58889L490.644 9.58889L491.351 10.296ZM502.895 3.488L503.172 4.44871L503.179 4.44674L503.186 4.44467L502.895 3.488ZM537.083 4.96799L536.65 5.86952L536.661 5.87468L536.672 5.87958L537.083 4.96799ZM548.183 14.736L549.056 14.2486L549.056 14.2486L548.183 14.736ZM551.735 84V85H552.735V84H551.735ZM538.711 84H537.711V85H538.711V84ZM534.123 17.252L533.394 17.9367L533.399 17.9423L533.404 17.9478L534.123 17.252ZM506.003 14.884L505.585 13.9753L505.576 13.9798L506.003 14.884ZM497.567 24.208L496.657 23.7927L496.653 23.801L496.65 23.8093L497.567 24.208ZM496.235 59.728L495.261 59.9559L495.264 59.9682L495.267 59.9804L496.235 59.728ZM518.435 74.232L518.587 75.2204L518.587 75.2204L518.435 74.232ZM522.135 73.344L523.126 73.2147L522.969 72.0117L521.818 72.3953L522.135 73.344ZM523.467 83.556L523.868 84.4722L524.555 84.1712L524.458 83.4267L523.467 83.556ZM517.991 85.036L517.849 84.046L517.842 84.0471L517.991 85.036ZM512.219 85.48V84.48C504.473 84.48 498.504 82.6891 494.197 79.2248L493.571 80.004L492.944 80.7832C497.714 84.6202 504.178 86.48 512.219 86.48V85.48ZM493.571 80.004L494.216 79.24C489.944 75.6327 486.884 70.7768 485.057 64.6234L484.099 64.908L483.14 65.1926C485.063 71.6685 488.317 76.8766 492.926 80.768L493.571 80.004ZM484.099 64.908L485.061 64.6373C483.314 58.4233 482.435 51.5599 482.435 44.04H481.435H480.435C480.435 51.7148 481.332 58.7633 483.136 65.1787L484.099 64.908ZM481.435 44.04H482.435C482.435 35.7105 483.269 28.9125 484.906 23.6153L483.951 23.32L482.995 23.0247C481.278 28.5808 480.435 35.5962 480.435 44.04H481.435ZM483.951 23.32L484.903 23.626C486.644 18.2081 489.041 14.0195 492.058 11.0031L491.351 10.296L490.644 9.58889C487.345 12.8871 484.809 17.3812 482.999 23.014L483.951 23.32ZM491.351 10.296L492.058 11.0031C495.194 7.86703 498.894 5.68467 503.172 4.44871L502.895 3.488L502.617 2.52728C498.015 3.85666 494.02 6.21297 490.644 9.58889L491.351 10.296ZM502.895 3.488L503.186 4.44467C507.618 3.09585 512.501 2.416 517.843 2.416V1.416V0.415996C512.331 0.415996 507.249 1.11748 502.604 2.53132L502.895 3.488ZM517.843 1.416V2.416C525.648 2.416 531.898 3.58851 536.65 5.86952L537.083 4.96799L537.515 4.06647C532.401 1.61148 525.824 0.415996 517.843 0.415996V1.416ZM537.083 4.96799L536.672 5.87958C541.536 8.07326 545.06 11.193 547.309 15.2234L548.183 14.736L549.056 14.2486C546.569 9.79368 542.694 6.40139 537.494 4.05641L537.083 4.96799ZM548.183 14.736L547.309 15.2234C549.578 19.2878 550.735 24.1936 550.735 29.98H551.735H552.735C552.735 23.9264 551.523 18.6696 549.056 14.2486L548.183 14.736ZM551.735 29.98H550.735V84H551.735H552.735V29.98H551.735ZM551.735 84V83H538.711V84V85H551.735V84ZM538.711 84H539.711V31.164H538.711H537.711V84H538.711ZM538.711 31.164H539.711C539.711 24.8899 538.141 19.9628 534.841 16.5562L534.123 17.252L533.404 17.9478C536.222 20.8558 537.711 25.2034 537.711 31.164H538.711ZM534.123 17.252L534.852 16.5673C531.509 13.0093 525.883 11.368 518.287 11.368V12.368V13.368C525.688 13.368 530.619 14.9827 533.394 17.9367L534.123 17.252ZM518.287 12.368V11.368C513.623 11.368 509.383 12.2305 505.585 13.9753L506.003 14.884L506.42 15.7927C509.924 14.1829 513.873 13.368 518.287 13.368V12.368ZM506.003 14.884L505.576 13.9798C501.758 15.7827 498.8 19.0987 496.657 23.7927L497.567 24.208L498.476 24.6233C500.477 20.24 503.144 17.3399 506.43 15.7882L506.003 14.884ZM497.567 24.208L496.65 23.8093C494.595 28.536 493.607 35.3594 493.607 44.188H494.607H495.607C495.607 35.4539 496.592 28.9573 498.484 24.6067L497.567 24.208ZM494.607 44.188H493.607C493.607 49.9725 494.155 55.2307 495.261 59.9559L496.235 59.728L497.208 59.5001C496.144 54.9507 495.607 49.8488 495.607 44.188H494.607ZM496.235 59.728L495.267 59.9804C496.489 64.6658 498.595 68.4466 501.621 71.2639L502.303 70.532L502.984 69.8001C500.287 67.2894 498.348 63.8676 497.202 59.4756L496.235 59.728ZM502.303 70.532L501.621 71.2639C504.72 74.1485 508.988 75.528 514.291 75.528V74.528V73.528C509.332 73.528 505.608 72.2435 502.984 69.8001L502.303 70.532ZM514.291 74.528V75.528C515.815 75.528 517.247 75.4264 518.587 75.2204L518.435 74.232L518.283 73.2436C517.057 73.4322 515.727 73.528 514.291 73.528V74.528ZM518.435 74.232L518.587 75.2204C519.923 75.0148 521.211 74.7059 522.451 74.2927L522.135 73.344L521.818 72.3953C520.69 72.7715 519.512 73.0545 518.283 73.2436L518.435 74.232ZM522.135 73.344L521.143 73.4733L522.475 83.6853L523.467 83.556L524.458 83.4267L523.126 73.2147L522.135 73.344ZM523.467 83.556L523.066 82.6398C521.585 83.2875 519.85 83.7602 517.849 84.0461L517.991 85.036L518.132 86.0259C520.275 85.7198 522.191 85.2058 523.868 84.4722L523.467 83.556ZM517.991 85.036L517.842 84.0471C515.915 84.3362 514.041 84.48 512.219 84.48V85.48V86.48C514.146 86.48 516.12 86.3278 518.139 86.0249L517.991 85.036Z" fill="#5E00FF" mask="url(#path-1-outside-1_92_1046)"/>
</g>
<defs>
<filter id="filter0_d_92_1046" x="0.879883" y="0.416016" width="563.255" height="90.464" filterUnits="userSpaceOnUse" color-interpolation-filters="sRGB">
<feFlood flood-opacity="0" result="BackgroundImageFix"/>
<feColorMatrix in="SourceAlpha" type="matrix" values="0 0 0 0 0 0 0 0 0 0 0 0 0 0 0 0 0 0 127 0" result="hardAlpha"/>
<feOffset dx="11" dy="4"/>
<feGaussianBlur stdDeviation="0.2"/>
<feComposite in2="hardAlpha" operator="out"/>
<feColorMatrix type="matrix" values="0 0 0 0 0 0 0 0 0 0 0 0 0 0 0 0 0 0 0.25 0"/>
<feBlend mode="normal" in2="BackgroundImageFix" result="effect1_dropShadow_92_1046"/>
<feBlend mode="normal" in="SourceGraphic" in2="effect1_dropShadow_92_1046" result="shape"/>
</filter>
</defs>
</svg>
